<svg version="1.2" baseProfile="tiny-ps" xmlns="http://www.w3.org/2000/svg" viewBox="0 0 48 36" width="48" height="36">
	<title>HEADER</title>
	<style>
		tspan { white-space:pre }
		.shp0 { fill: #2a2b50 } 
	</style>
	<g id="HEADER">
		<g id="left-arrow (1) 1">
			<g id="line">
				<path id="Vector" fill-rule="evenodd" class="shp0" d="M45 15L11.29 15L22.92 5.3C23.51 4.79 23.88 4.06 23.94 3.28C24 2.5 23.75 1.72 23.25 1.12C22.75 0.52 22.03 0.14 21.25 0.06C20.47 -0.02 19.69 0.21 19.08 0.7L1.08 15.7C0.75 15.98 0.48 16.33 0.3 16.73C0.11 17.13 0.02 17.56 0.02 18C0.02 18.44 0.11 18.87 0.3 19.27C0.48 19.67 0.75 20.02 1.08 20.3L19.08 35.3C19.69 35.79 20.47 36.02 21.25 35.94C22.03 35.86 22.75 35.48 23.25 34.88C23.75 34.28 24 33.5 23.94 32.72C23.88 31.94 23.51 31.21 22.92 30.7L11.28 21L45 21C45.8 21 46.56 20.68 47.12 20.12C47.68 19.56 48 18.8 48 18C48 17.2 47.68 16.44 47.12 15.88C46.56 15.32 45.8 15 45 15L45 15Z" />
			</g>
		</g>
	</g>
</svg>